<?xml version="1.0" standalone="no"?> <!DOCTYPE svg PUBLIC "-//W3C//DTD SVG 20010904//EN" "http://www.w3.org/TR/2001/REC-SVG-20010904/DTD/svg10.dtd"> <svg version="1.0" xmlns="http://www.w3.org/2000/svg" width="369.000000pt" height="303.000000pt" viewBox="0 0 369.000000 303.000000" preserveAspectRatio="xMidYMid meet"> <g transform="translate(0.000000,303.000000) scale(0.100000,-0.100000)" fill="#6be679" stroke="none"> <path d="M1540 2852 c-116 -39 -266 -99 -290 -116 -8 -6 -31 -20 -50 -30 -19 -11 -54 -32 -78 -48 -24 -15 -47 -28 -53 -28 -11 0 -13 -30 -1 -30 13 -1 1697 -1 1710 0 59 2 -146 132 -308 195 -25 9 -59 23 -77 30 -17 8 -59 20 -92 26 l-61 13 -33 -12 c-18 -7 -39 -12 -46 -12 -7 0 -64 -26 -127 -57 l-115 -56 -27 20 c-34 25 -177 93 -196 93 -8 0 -27 7 -42 15 -35 18 -55 17 -114 -3z"/> <path d="M759 2284 c-16 -19 -18 -23 -86 -153 -29 -55 -53 -107 -53 -115 l0 -16 1304 0 1305 0 5 8 c5 8 -34 88 -88 182 -14 25 -29 52 -32 60 -4 8 -14 23 -22 33 l-15 17 -1152 0 -1153 0 -13 -16z"/> <path d="M536 1692 c-6 -11 -10 -281 -4 -287 8 -8 2782 -6 2788 3 3 4 4 71 2 150 l-4 142 -1388 0 c-764 0 -1391 -4 -1394 -8z"/> <path d="M1913 1102 l-1323 -2 0 -24 c0 -14 6 -37 14 -53 15 -30 41 -89 50 -113 3 -8 10 -22 14 -30 5 -8 16 -28 25 -45 l16 -30 1216 0 1216 0 14 25 c16 30 71 149 78 170 3 8 12 32 21 52 l16 37 -18 8 c-9 4 -612 7 -1339 5z"/> <path d="M962 494 l-15 -11 109 -79 c110 -80 137 -98 164 -109 8 -4 22 -10 30 -15 8 -5 35 -18 60 -30 25 -12 58 -28 73 -35 l29 -15 182 0 182 0 34 18 c19 10 51 28 70 40 47 29 52 28 132 -18 l70 -40 178 0 178 0 29 14 c15 8 46 23 68 33 92 42 342 204 361 234 11 19 -44 20 -971 22 l-948 2 -15 -11z"/> </g> </svg>